<svg xmlns="http://www.w3.org/2000/svg" id="image-prep-short-path-graph-figure" width="310" height="310" viewBox="0 0 310 310">
  <defs>
    <clipPath id="image-prep-short-path-graph-clipPath-0">
      <rect x="5.0" y="5.0" width="300.0" height="300.0"/>
    </clipPath>
    <clipPath id="image-prep-short-path-graph-clipPath-1">
      <rect x="5.0" y="5.0" width="300.0" height="300.0"/>
    </clipPath>
  </defs>
  <g id="image-prep-short-path-graph-group-0">
    <g id="image-prep-short-path-graph-group-1">
      <path id="image-prep-short-path-graph-edge-1-2" d="M 195.6 16.5 Q 154.9 29.8 114.2 43.1 Q 73.5 56.4 32.8 69.7" stroke="black" stroke-width="2" stroke-dasharray="none" fill="none" clip-path="url(#image-prep-short-path-graph-clipPath-1)"/>
      <g id="image-prep-short-path-graph-label-0" transform="translate(114.2,39.1) translate(-4.5,-10.4)">
        <g id="image-prep-short-path-graph-g-0">
          <text font-family="sans-serif" font-size="14" x="0.0" y="10.4">2</text>
        </g>
      </g>
      <path id="image-prep-short-path-graph-edge-1-3" d="M 195.6 16.5 Q 154.9 72.9 114.2 129.2 Q 73.5 185.5 32.8 241.8" stroke="black" stroke-width="2" stroke-dasharray="none" fill="none" clip-path="url(#image-prep-short-path-graph-clipPath-1)"/>
      <g id="image-prep-short-path-graph-label-1" transform="translate(110.2,125.2) translate(-8.9,-10.2)">
        <g id="image-prep-short-path-graph-g-1">
          <text font-family="sans-serif" font-size="14" x="0.0" y="10.2">4</text>
        </g>
      </g>
      <path id="image-prep-short-path-graph-edge-2-3" d="M 32.8 69.7 Q 32.8 112.7 32.8 155.7 Q 32.8 198.7 32.8 241.8" stroke="black" stroke-width="2" stroke-dasharray="none" fill="none" clip-path="url(#image-prep-short-path-graph-clipPath-1)"/>
      <g id="image-prep-short-path-graph-label-2" transform="translate(28.8,155.7) translate(-8.9,-5.1)">
        <g id="image-prep-short-path-graph-g-2">
          <text font-family="sans-serif" font-size="14" x="0.0" y="10.2">1</text>
        </g>
      </g>
      <path id="image-prep-short-path-graph-edge-2-4" d="M 32.8 69.7 Q 73.5 126.0 114.2 182.3 Q 154.9 238.6 195.6 294.9" stroke="black" stroke-width="2" stroke-dasharray="none" fill="none" clip-path="url(#image-prep-short-path-graph-clipPath-1)"/>
      <g id="image-prep-short-path-graph-label-3" transform="translate(110.2,186.3) translate(-8.9,-0.0)">
        <g id="image-prep-short-path-graph-g-3">
          <text font-family="sans-serif" font-size="14" x="0.0" y="10.4">3</text>
        </g>
      </g>
      <path id="image-prep-short-path-graph-edge-3-5" d="M 32.8 241.8 Q 98.7 220.2 164.5 198.7 Q 230.4 177.2 296.3 155.7" stroke="black" stroke-width="2" stroke-dasharray="none" fill="none" clip-path="url(#image-prep-short-path-graph-clipPath-1)"/>
      <g id="image-prep-short-path-graph-label-4" transform="translate(164.5,202.7) translate(-4.5,-0.0)">
        <g id="image-prep-short-path-graph-g-4">
          <text font-family="sans-serif" font-size="14" x="0.0" y="10.4">2</text>
        </g>
      </g>
    </g>
    <g id="image-prep-short-path-graph-group-2">
      <circle id="image-prep-short-path-graph-node-1" cx="195.6" cy="16.5" r="12" stroke="black" stroke-width="1" fill="white"/>
      <g id="image-prep-short-path-graph-label-5" transform="translate(195.6,16.5) translate(-8.3,-5.4)">
        <g id="image-prep-short-path-graph-g-5">
          <svg xmlns:xlink="http://www.w3.org/1999/xlink" style="vertical-align: -2.712px" width="16.680px" height="10.736px" role="img" focusable="false" viewBox="0 -443 921.6 593" x="0.0" y="0.0">
            <defs>
              <path id="image-prep-short-path-graph-MJX-2-TEX-I-1D463" d="M173 380Q173 405 154 405Q130 405 104 376T61 287Q60 286 59 284T58 281T56 279T53 278T49 278T41 278H27Q21 284 21 287Q21 294 29 316T53 368T97 419T160 441Q202 441 225 417T249 361Q249 344 246 335Q246 329 231 291T200 202T182 113Q182 86 187 69Q200 26 250 26Q287 26 319 60T369 139T398 222T409 277Q409 300 401 317T383 343T365 361T357 383Q357 405 376 424T417 443Q436 443 451 425T467 367Q467 340 455 284T418 159T347 40T241 -11Q177 -11 139 22Q102 54 102 117Q102 148 110 181T151 298Q173 362 173 380Z"/>
              <path id="image-prep-short-path-graph-MJX-2-TEX-N-31" d="M213 578L200 573Q186 568 160 563T102 556H83V602H102Q149 604 189 617T245 641T273 663Q275 666 285 666Q294 666 302 660V361L303 61Q310 54 315 52T339 48T401 46H427V0H416Q395 3 257 3Q121 3 100 0H88V46H114Q136 46 152 46T177 47T193 50T201 52T207 57T213 61V578Z"/>
            </defs>
            <g stroke="currentColor" fill="currentColor" stroke-width="0" transform="scale(1,-1)">
              <g data-mml-node="math">
                <g data-mml-node="msub" data-semantic-type="subscript" data-semantic-role="latinletter" data-semantic-id="2" data-semantic-children="0,1" data-semantic-speech="v 1">
                  <g data-mml-node="mi" data-semantic-type="identifier" data-semantic-role="latinletter" data-semantic-font="italic" data-semantic-annotation="clearspeak:simple" data-semantic-id="0" data-semantic-parent="2" data-semantic-speech="v" data-semantic-prefix="Base">
                    <use data-c="1D463" xlink:href="#image-prep-short-path-graph-MJX-2-TEX-I-1D463"/>
                  </g>
                  <g data-mml-node="mn" transform="translate(518,-150) scale(0.707)" data-semantic-type="number" data-semantic-role="integer" data-semantic-font="normal" data-semantic-annotation="clearspeak:simple" data-semantic-id="1" data-semantic-parent="2" data-semantic-speech="1" data-semantic-prefix="Subscript">
                    <use data-c="31" xlink:href="#image-prep-short-path-graph-MJX-2-TEX-N-31"/>
                  </g>
                </g>
              </g>
            </g>
          </svg>
        </g>
      </g>
      <circle id="image-prep-short-path-graph-node-2" cx="32.8" cy="69.7" r="12" stroke="black" stroke-width="1" fill="white"/>
      <g id="image-prep-short-path-graph-label-6" transform="translate(32.8,69.7) translate(-8.3,-5.4)">
        <g id="image-prep-short-path-graph-g-6">
          <svg xmlns:xlink="http://www.w3.org/1999/xlink" style="vertical-align: -2.712px" width="16.680px" height="10.736px" role="img" focusable="false" viewBox="0 -443 921.6 593" x="0.0" y="0.0">
            <defs>
              <path id="image-prep-short-path-graph-MJX-3-TEX-I-1D463" d="M173 380Q173 405 154 405Q130 405 104 376T61 287Q60 286 59 284T58 281T56 279T53 278T49 278T41 278H27Q21 284 21 287Q21 294 29 316T53 368T97 419T160 441Q202 441 225 417T249 361Q249 344 246 335Q246 329 231 291T200 202T182 113Q182 86 187 69Q200 26 250 26Q287 26 319 60T369 139T398 222T409 277Q409 300 401 317T383 343T365 361T357 383Q357 405 376 424T417 443Q436 443 451 425T467 367Q467 340 455 284T418 159T347 40T241 -11Q177 -11 139 22Q102 54 102 117Q102 148 110 181T151 298Q173 362 173 380Z"/>
              <path id="image-prep-short-path-graph-MJX-3-TEX-N-32" d="M109 429Q82 429 66 447T50 491Q50 562 103 614T235 666Q326 666 387 610T449 465Q449 422 429 383T381 315T301 241Q265 210 201 149L142 93L218 92Q375 92 385 97Q392 99 409 186V189H449V186Q448 183 436 95T421 3V0H50V19V31Q50 38 56 46T86 81Q115 113 136 137Q145 147 170 174T204 211T233 244T261 278T284 308T305 340T320 369T333 401T340 431T343 464Q343 527 309 573T212 619Q179 619 154 602T119 569T109 550Q109 549 114 549Q132 549 151 535T170 489Q170 464 154 447T109 429Z"/>
            </defs>
            <g stroke="currentColor" fill="currentColor" stroke-width="0" transform="scale(1,-1)">
              <g data-mml-node="math">
                <g data-mml-node="msub" data-semantic-type="subscript" data-semantic-role="latinletter" data-semantic-id="2" data-semantic-children="0,1" data-semantic-speech="v 2">
                  <g data-mml-node="mi" data-semantic-type="identifier" data-semantic-role="latinletter" data-semantic-font="italic" data-semantic-annotation="clearspeak:simple" data-semantic-id="0" data-semantic-parent="2" data-semantic-speech="v" data-semantic-prefix="Base">
                    <use data-c="1D463" xlink:href="#image-prep-short-path-graph-MJX-3-TEX-I-1D463"/>
                  </g>
                  <g data-mml-node="mn" transform="translate(518,-150) scale(0.707)" data-semantic-type="number" data-semantic-role="integer" data-semantic-font="normal" data-semantic-annotation="clearspeak:simple" data-semantic-id="1" data-semantic-parent="2" data-semantic-speech="2" data-semantic-prefix="Subscript">
                    <use data-c="32" xlink:href="#image-prep-short-path-graph-MJX-3-TEX-N-32"/>
                  </g>
                </g>
              </g>
            </g>
          </svg>
        </g>
      </g>
      <circle id="image-prep-short-path-graph-node-3" cx="32.8" cy="241.8" r="12" stroke="black" stroke-width="1" fill="white"/>
      <g id="image-prep-short-path-graph-label-7" transform="translate(32.8,241.8) translate(-8.3,-5.5)">
        <g id="image-prep-short-path-graph-g-7">
          <svg xmlns:xlink="http://www.w3.org/1999/xlink" style="vertical-align: -3.000px" width="16.680px" height="11.016px" role="img" focusable="false" viewBox="0 -443 921.6 608.6" x="0.0" y="0.0">
            <defs>
              <path id="image-prep-short-path-graph-MJX-4-TEX-I-1D463" d="M173 380Q173 405 154 405Q130 405 104 376T61 287Q60 286 59 284T58 281T56 279T53 278T49 278T41 278H27Q21 284 21 287Q21 294 29 316T53 368T97 419T160 441Q202 441 225 417T249 361Q249 344 246 335Q246 329 231 291T200 202T182 113Q182 86 187 69Q200 26 250 26Q287 26 319 60T369 139T398 222T409 277Q409 300 401 317T383 343T365 361T357 383Q357 405 376 424T417 443Q436 443 451 425T467 367Q467 340 455 284T418 159T347 40T241 -11Q177 -11 139 22Q102 54 102 117Q102 148 110 181T151 298Q173 362 173 380Z"/>
              <path id="image-prep-short-path-graph-MJX-4-TEX-N-33" d="M127 463Q100 463 85 480T69 524Q69 579 117 622T233 665Q268 665 277 664Q351 652 390 611T430 522Q430 470 396 421T302 350L299 348Q299 347 308 345T337 336T375 315Q457 262 457 175Q457 96 395 37T238 -22Q158 -22 100 21T42 130Q42 158 60 175T105 193Q133 193 151 175T169 130Q169 119 166 110T159 94T148 82T136 74T126 70T118 67L114 66Q165 21 238 21Q293 21 321 74Q338 107 338 175V195Q338 290 274 322Q259 328 213 329L171 330L168 332Q166 335 166 348Q166 366 174 366Q202 366 232 371Q266 376 294 413T322 525V533Q322 590 287 612Q265 626 240 626Q208 626 181 615T143 592T132 580H135Q138 579 143 578T153 573T165 566T175 555T183 540T186 520Q186 498 172 481T127 463Z"/>
            </defs>
            <g stroke="currentColor" fill="currentColor" stroke-width="0" transform="scale(1,-1)">
              <g data-mml-node="math">
                <g data-mml-node="msub" data-semantic-type="subscript" data-semantic-role="latinletter" data-semantic-id="2" data-semantic-children="0,1" data-semantic-speech="v 3">
                  <g data-mml-node="mi" data-semantic-type="identifier" data-semantic-role="latinletter" data-semantic-font="italic" data-semantic-annotation="clearspeak:simple" data-semantic-id="0" data-semantic-parent="2" data-semantic-speech="v" data-semantic-prefix="Base">
                    <use data-c="1D463" xlink:href="#image-prep-short-path-graph-MJX-4-TEX-I-1D463"/>
                  </g>
                  <g data-mml-node="mn" transform="translate(518,-150) scale(0.707)" data-semantic-type="number" data-semantic-role="integer" data-semantic-font="normal" data-semantic-annotation="clearspeak:simple" data-semantic-id="1" data-semantic-parent="2" data-semantic-speech="3" data-semantic-prefix="Subscript">
                    <use data-c="33" xlink:href="#image-prep-short-path-graph-MJX-4-TEX-N-33"/>
                  </g>
                </g>
              </g>
            </g>
          </svg>
        </g>
      </g>
      <circle id="image-prep-short-path-graph-node-4" cx="195.6" cy="294.9" r="12" stroke="black" stroke-width="1" fill="white"/>
      <g id="image-prep-short-path-graph-label-8" transform="translate(195.6,294.9) translate(-8.3,-5.4)">
        <g id="image-prep-short-path-graph-g-8">
          <svg xmlns:xlink="http://www.w3.org/1999/xlink" style="vertical-align: -2.712px" width="16.680px" height="10.736px" role="img" focusable="false" viewBox="0 -443 921.6 593" x="0.0" y="0.0">
            <defs>
              <path id="image-prep-short-path-graph-MJX-5-TEX-I-1D463" d="M173 380Q173 405 154 405Q130 405 104 376T61 287Q60 286 59 284T58 281T56 279T53 278T49 278T41 278H27Q21 284 21 287Q21 294 29 316T53 368T97 419T160 441Q202 441 225 417T249 361Q249 344 246 335Q246 329 231 291T200 202T182 113Q182 86 187 69Q200 26 250 26Q287 26 319 60T369 139T398 222T409 277Q409 300 401 317T383 343T365 361T357 383Q357 405 376 424T417 443Q436 443 451 425T467 367Q467 340 455 284T418 159T347 40T241 -11Q177 -11 139 22Q102 54 102 117Q102 148 110 181T151 298Q173 362 173 380Z"/>
              <path id="image-prep-short-path-graph-MJX-5-TEX-N-34" d="M462 0Q444 3 333 3Q217 3 199 0H190V46H221Q241 46 248 46T265 48T279 53T286 61Q287 63 287 115V165H28V211L179 442Q332 674 334 675Q336 677 355 677H373L379 671V211H471V165H379V114Q379 73 379 66T385 54Q393 47 442 46H471V0H462ZM293 211V545L74 212L183 211H293Z"/>
            </defs>
            <g stroke="currentColor" fill="currentColor" stroke-width="0" transform="scale(1,-1)">
              <g data-mml-node="math">
                <g data-mml-node="msub" data-semantic-type="subscript" data-semantic-role="latinletter" data-semantic-id="2" data-semantic-children="0,1" data-semantic-speech="v 4">
                  <g data-mml-node="mi" data-semantic-type="identifier" data-semantic-role="latinletter" data-semantic-font="italic" data-semantic-annotation="clearspeak:simple" data-semantic-id="0" data-semantic-parent="2" data-semantic-speech="v" data-semantic-prefix="Base">
                    <use data-c="1D463" xlink:href="#image-prep-short-path-graph-MJX-5-TEX-I-1D463"/>
                  </g>
                  <g data-mml-node="mn" transform="translate(518,-150) scale(0.707)" data-semantic-type="number" data-semantic-role="integer" data-semantic-font="normal" data-semantic-annotation="clearspeak:simple" data-semantic-id="1" data-semantic-parent="2" data-semantic-speech="4" data-semantic-prefix="Subscript">
                    <use data-c="34" xlink:href="#image-prep-short-path-graph-MJX-5-TEX-N-34"/>
                  </g>
                </g>
              </g>
            </g>
          </svg>
        </g>
      </g>
      <circle id="image-prep-short-path-graph-node-5" cx="296.3" cy="155.7" r="12" stroke="black" stroke-width="1" fill="white"/>
      <g id="image-prep-short-path-graph-label-9" transform="translate(296.3,155.7) translate(-8.3,-5.5)">
        <g id="image-prep-short-path-graph-g-9">
          <svg xmlns:xlink="http://www.w3.org/1999/xlink" style="vertical-align: -3.000px" width="16.680px" height="11.016px" role="img" focusable="false" viewBox="0 -443 921.6 608.6" x="0.0" y="0.0">
            <defs>
              <path id="image-prep-short-path-graph-MJX-6-TEX-I-1D463" d="M173 380Q173 405 154 405Q130 405 104 376T61 287Q60 286 59 284T58 281T56 279T53 278T49 278T41 278H27Q21 284 21 287Q21 294 29 316T53 368T97 419T160 441Q202 441 225 417T249 361Q249 344 246 335Q246 329 231 291T200 202T182 113Q182 86 187 69Q200 26 250 26Q287 26 319 60T369 139T398 222T409 277Q409 300 401 317T383 343T365 361T357 383Q357 405 376 424T417 443Q436 443 451 425T467 367Q467 340 455 284T418 159T347 40T241 -11Q177 -11 139 22Q102 54 102 117Q102 148 110 181T151 298Q173 362 173 380Z"/>
              <path id="image-prep-short-path-graph-MJX-6-TEX-N-35" d="M164 157Q164 133 148 117T109 101H102Q148 22 224 22Q294 22 326 82Q345 115 345 210Q345 313 318 349Q292 382 260 382H254Q176 382 136 314Q132 307 129 306T114 304Q97 304 95 310Q93 314 93 485V614Q93 664 98 664Q100 666 102 666Q103 666 123 658T178 642T253 634Q324 634 389 662Q397 666 402 666Q410 666 410 648V635Q328 538 205 538Q174 538 149 544L139 546V374Q158 388 169 396T205 412T256 420Q337 420 393 355T449 201Q449 109 385 44T229 -22Q148 -22 99 32T50 154Q50 178 61 192T84 210T107 214Q132 214 148 197T164 157Z"/>
            </defs>
            <g stroke="currentColor" fill="currentColor" stroke-width="0" transform="scale(1,-1)">
              <g data-mml-node="math">
                <g data-mml-node="msub" data-semantic-type="subscript" data-semantic-role="latinletter" data-semantic-id="2" data-semantic-children="0,1" data-semantic-speech="v 5">
                  <g data-mml-node="mi" data-semantic-type="identifier" data-semantic-role="latinletter" data-semantic-font="italic" data-semantic-annotation="clearspeak:simple" data-semantic-id="0" data-semantic-parent="2" data-semantic-speech="v" data-semantic-prefix="Base">
                    <use data-c="1D463" xlink:href="#image-prep-short-path-graph-MJX-6-TEX-I-1D463"/>
                  </g>
                  <g data-mml-node="mn" transform="translate(518,-150) scale(0.707)" data-semantic-type="number" data-semantic-role="integer" data-semantic-font="normal" data-semantic-annotation="clearspeak:simple" data-semantic-id="1" data-semantic-parent="2" data-semantic-speech="5" data-semantic-prefix="Subscript">
                    <use data-c="35" xlink:href="#image-prep-short-path-graph-MJX-6-TEX-N-35"/>
                  </g>
                </g>
              </g>
            </g>
          </svg>
        </g>
      </g>
    </g>
  </g>
</svg>
