<svg xmlns="http://www.w3.org/2000/svg" id="image-prep-partial-order-2-figure" width="310" height="310" viewBox="0 0 310 310">
  <defs>
    <clipPath id="image-prep-partial-order-2-clipPath-0">
      <rect x="5.0" y="5.0" width="300.0" height="300.0"/>
    </clipPath>
    <clipPath id="image-prep-partial-order-2-clipPath-1">
      <rect x="5.0" y="5.0" width="300.0" height="300.0"/>
    </clipPath>
    <marker id="image-prep-partial-order-2-arrow-head-end-2_None_24_60-black" markerWidth="9.0" markerHeight="8.0" markerUnits="userSpaceOnUse" orient="auto-start-reverse" refX="6.5" refY="4.0">
      <path d="M 9.0 4.0L 0.0 8.0L 1.7 5.0L 1.7 3.0L 0.0 0.0Z" fill="black" stroke="none"/>
    </marker>
    <marker id="image-prep-partial-order-2-arrow-head-end-2_None_24_60-black-outline" markerWidth="13.0" markerHeight="12.0" markerUnits="userSpaceOnUse" orient="auto-start-reverse" refX="8.5" refY="6.0">
      <path d="M 11.8 7.8 L 2.8 11.8 A 2 2 0 0 1 0.0 10.0 L 0.0 2.0 A 2 2 0 0 1 2.8 0.2 L 11.8 4.2 A 2 2 0 0 1 11.8 7.8 Z" fill="white" stroke="none"/>
    </marker>
  </defs>
  <g id="image-prep-partial-order-2-group-0">
    <g id="image-prep-partial-order-2-group-1">
      <line id="image-prep-partial-order-2-edge-1-2" x1="62.7" y1="65.0" x2="218.3" y2="65.0" stroke="black" stroke-width="2" stroke-dasharray="none" fill="none" marker-end="url(#image-prep-partial-order-2-arrow-head-end-2_None_24_60-black)"/>
      <line id="image-prep-partial-order-2-edge-2-4" x1="235.8" y1="65.0" x2="235.8" y2="227.6" stroke="black" stroke-width="2" stroke-dasharray="none" fill="none" marker-end="url(#image-prep-partial-order-2-arrow-head-end-2_None_24_60-black)"/>
      <line id="image-prep-partial-order-2-edge-3-2" x1="62.7" y1="245.0" x2="223.6" y2="77.7" stroke="black" stroke-width="2" stroke-dasharray="none" fill="none" marker-end="url(#image-prep-partial-order-2-arrow-head-end-2_None_24_60-black)"/>
    </g>
    <g id="image-prep-partial-order-2-group-2">
      <circle id="image-prep-partial-order-2-node-1" cx="62.7" cy="65.0" r="12" stroke="black" stroke-width="1" fill="white"/>
      <g id="image-prep-partial-order-2-label-0" transform="translate(62.7,65.0) translate(-4.8,-4.1)">
        <g id="image-prep-partial-order-2-g-0">
          <svg xmlns:xlink="http://www.w3.org/1999/xlink" style="vertical-align: -0.184px" width="9.576px" height="8.160px" role="img" focusable="false" viewBox="0 -441 529 451" x="0.0" y="0.0">
            <defs>
              <path id="image-prep-partial-order-2-MJX-2-TEX-I-1D44E" d="M33 157Q33 258 109 349T280 441Q331 441 370 392Q386 422 416 422Q429 422 439 414T449 394Q449 381 412 234T374 68Q374 43 381 35T402 26Q411 27 422 35Q443 55 463 131Q469 151 473 152Q475 153 483 153H487Q506 153 506 144Q506 138 501 117T481 63T449 13Q436 0 417 -8Q409 -10 393 -10Q359 -10 336 5T306 36L300 51Q299 52 296 50Q294 48 292 46Q233 -10 172 -10Q117 -10 75 30T33 157ZM351 328Q351 334 346 350T323 385T277 405Q242 405 210 374T160 293Q131 214 119 129Q119 126 119 118T118 106Q118 61 136 44T179 26Q217 26 254 59T298 110Q300 114 325 217T351 328Z"/>
            </defs>
            <g stroke="currentColor" fill="currentColor" stroke-width="0" transform="scale(1,-1)">
              <g data-mml-node="math">
                <g data-mml-node="mi" data-semantic-type="identifier" data-semantic-role="latinletter" data-semantic-font="italic" data-semantic-annotation="clearspeak:simple" data-semantic-id="0" data-semantic-speech="a">
                  <use data-c="1D44E" xlink:href="#image-prep-partial-order-2-MJX-2-TEX-I-1D44E"/>
                </g>
              </g>
            </g>
          </svg>
        </g>
      </g>
      <circle id="image-prep-partial-order-2-node-2" cx="235.8" cy="65.0" r="12" stroke="black" stroke-width="1" fill="white"/>
      <g id="image-prep-partial-order-2-label-1" transform="translate(235.8,65.0) translate(-3.9,-6.4)">
        <g id="image-prep-partial-order-2-g-1">
          <svg xmlns:xlink="http://www.w3.org/1999/xlink" style="vertical-align: -0.200px" width="7.768px" height="12.760px" role="img" focusable="false" viewBox="0 -694 429 705" x="0.0" y="0.0">
            <defs>
              <path id="image-prep-partial-order-2-MJX-3-TEX-I-1D44F" d="M73 647Q73 657 77 670T89 683Q90 683 161 688T234 694Q246 694 246 685T212 542Q204 508 195 472T180 418L176 399Q176 396 182 402Q231 442 283 442Q345 442 383 396T422 280Q422 169 343 79T173 -11Q123 -11 82 27T40 150V159Q40 180 48 217T97 414Q147 611 147 623T109 637Q104 637 101 637H96Q86 637 83 637T76 640T73 647ZM336 325V331Q336 405 275 405Q258 405 240 397T207 376T181 352T163 330L157 322L136 236Q114 150 114 114Q114 66 138 42Q154 26 178 26Q211 26 245 58Q270 81 285 114T318 219Q336 291 336 325Z"/>
            </defs>
            <g stroke="currentColor" fill="currentColor" stroke-width="0" transform="scale(1,-1)">
              <g data-mml-node="math">
                <g data-mml-node="mi" data-semantic-type="identifier" data-semantic-role="latinletter" data-semantic-font="italic" data-semantic-annotation="clearspeak:simple" data-semantic-id="0" data-semantic-speech="b">
                  <use data-c="1D44F" xlink:href="#image-prep-partial-order-2-MJX-3-TEX-I-1D44F"/>
                </g>
              </g>
            </g>
          </svg>
        </g>
      </g>
      <circle id="image-prep-partial-order-2-node-3" cx="62.7" cy="245.0" r="12" stroke="black" stroke-width="1" fill="white"/>
      <g id="image-prep-partial-order-2-label-2" transform="translate(62.7,245.0) translate(-3.9,-4.1)">
        <g id="image-prep-partial-order-2-g-2">
          <svg xmlns:xlink="http://www.w3.org/1999/xlink" style="vertical-align: -0.200px" width="7.840px" height="8.200px" role="img" focusable="false" viewBox="0 -442 433 453" x="0.0" y="0.0">
            <defs>
              <path id="image-prep-partial-order-2-MJX-4-TEX-I-1D450" d="M34 159Q34 268 120 355T306 442Q362 442 394 418T427 355Q427 326 408 306T360 285Q341 285 330 295T319 325T330 359T352 380T366 386H367Q367 388 361 392T340 400T306 404Q276 404 249 390Q228 381 206 359Q162 315 142 235T121 119Q121 73 147 50Q169 26 205 26H209Q321 26 394 111Q403 121 406 121Q410 121 419 112T429 98T420 83T391 55T346 25T282 0T202 -11Q127 -11 81 37T34 159Z"/>
            </defs>
            <g stroke="currentColor" fill="currentColor" stroke-width="0" transform="scale(1,-1)">
              <g data-mml-node="math">
                <g data-mml-node="mi" data-semantic-type="identifier" data-semantic-role="latinletter" data-semantic-font="italic" data-semantic-annotation="clearspeak:simple" data-semantic-id="0" data-semantic-speech="c">
                  <use data-c="1D450" xlink:href="#image-prep-partial-order-2-MJX-4-TEX-I-1D450"/>
                </g>
              </g>
            </g>
          </svg>
        </g>
      </g>
      <circle id="image-prep-partial-order-2-node-4" cx="235.8" cy="245.0" r="12" stroke="black" stroke-width="1" fill="white"/>
      <g id="image-prep-partial-order-2-label-3" transform="translate(235.8,245.0) translate(-4.7,-6.4)">
        <g id="image-prep-partial-order-2-g-3">
          <svg xmlns:xlink="http://www.w3.org/1999/xlink" style="vertical-align: -0.184px" width="9.408px" height="12.744px" role="img" focusable="false" viewBox="0 -694 520 704" x="0.0" y="0.0">
            <defs>
              <path id="image-prep-partial-order-2-MJX-5-TEX-I-1D451" d="M366 683Q367 683 438 688T511 694Q523 694 523 686Q523 679 450 384T375 83T374 68Q374 26 402 26Q411 27 422 35Q443 55 463 131Q469 151 473 152Q475 153 483 153H487H491Q506 153 506 145Q506 140 503 129Q490 79 473 48T445 8T417 -8Q409 -10 393 -10Q359 -10 336 5T306 36L300 51Q299 52 296 50Q294 48 292 46Q233 -10 172 -10Q117 -10 75 30T33 157Q33 205 53 255T101 341Q148 398 195 420T280 442Q336 442 364 400Q369 394 369 396Q370 400 396 505T424 616Q424 629 417 632T378 637H357Q351 643 351 645T353 664Q358 683 366 683ZM352 326Q329 405 277 405Q242 405 210 374T160 293Q131 214 119 129Q119 126 119 118T118 106Q118 61 136 44T179 26Q233 26 290 98L298 109L352 326Z"/>
            </defs>
            <g stroke="currentColor" fill="currentColor" stroke-width="0" transform="scale(1,-1)">
              <g data-mml-node="math">
                <g data-mml-node="mi" data-semantic-type="identifier" data-semantic-role="latinletter" data-semantic-font="italic" data-semantic-annotation="clearspeak:simple" data-semantic-id="0" data-semantic-speech="d">
                  <use data-c="1D451" xlink:href="#image-prep-partial-order-2-MJX-5-TEX-I-1D451"/>
                </g>
              </g>
            </g>
          </svg>
        </g>
      </g>
    </g>
  </g>
</svg>
