<svg xmlns="http://www.w3.org/2000/svg" id="relation-composition-digraph-1-figure" width="310" height="310" viewBox="0 0 310 310">
  <defs>
    <clipPath id="relation-composition-digraph-1-clipPath-0">
      <rect x="5.0" y="5.0" width="300.0" height="300.0"/>
    </clipPath>
    <clipPath id="relation-composition-digraph-1-clipPath-1">
      <rect x="5.0" y="5.0" width="300.0" height="300.0"/>
    </clipPath>
    <marker id="relation-composition-digraph-1-arrow-head-end-2_None_24_60-black" markerWidth="9.0" markerHeight="8.0" markerUnits="userSpaceOnUse" orient="auto-start-reverse" refX="6.5" refY="4.0">
      <path d="M 9.0 4.0L 0.0 8.0L 1.7 5.0L 1.7 3.0L 0.0 0.0Z" fill="black" stroke="none"/>
    </marker>
    <marker id="relation-composition-digraph-1-arrow-head-end-2_None_24_60-black-outline" markerWidth="13.0" markerHeight="12.0" markerUnits="userSpaceOnUse" orient="auto-start-reverse" refX="8.5" refY="6.0">
      <path d="M 11.8 7.8 L 2.8 11.8 A 2 2 0 0 1 0.0 10.0 L 0.0 2.0 A 2 2 0 0 1 2.8 0.2 L 11.8 4.2 A 2 2 0 0 1 11.8 7.8 Z" fill="white" stroke="none"/>
    </marker>
  </defs>
  <g id="relation-composition-digraph-1-group-0">
    <g id="relation-composition-digraph-1-group-1">
      <line id="relation-composition-digraph-1-edge-1-2" x1="35.0" y1="155.0" x2="137.6" y2="155.0" stroke="black" stroke-width="2" stroke-dasharray="none" fill="none" marker-end="url(#relation-composition-digraph-1-arrow-head-end-2_None_24_60-black)"/>
      <g id="relation-composition-digraph-1-label-0" transform="translate(95.0,159.0) translate(-6.9,-0.0)">
        <g id="relation-composition-digraph-1-g-0">
          <svg xmlns:xlink="http://www.w3.org/1999/xlink" style="vertical-align: -0.384px" width="13.736px" height="12.744px" role="img" focusable="false" viewBox="0 -683 759 704" x="0.0" y="0.0">
            <defs>
              <path id="relation-composition-digraph-1-MJX-2-TEX-I-1D445" d="M230 637Q203 637 198 638T193 649Q193 676 204 682Q206 683 378 683Q550 682 564 680Q620 672 658 652T712 606T733 563T739 529Q739 484 710 445T643 385T576 351T538 338L545 333Q612 295 612 223Q612 212 607 162T602 80V71Q602 53 603 43T614 25T640 16Q668 16 686 38T712 85Q717 99 720 102T735 105Q755 105 755 93Q755 75 731 36Q693 -21 641 -21H632Q571 -21 531 4T487 82Q487 109 502 166T517 239Q517 290 474 313Q459 320 449 321T378 323H309L277 193Q244 61 244 59Q244 55 245 54T252 50T269 48T302 46H333Q339 38 339 37T336 19Q332 6 326 0H311Q275 2 180 2Q146 2 117 2T71 2T50 1Q33 1 33 10Q33 12 36 24Q41 43 46 45Q50 46 61 46H67Q94 46 127 49Q141 52 146 61Q149 65 218 339T287 628Q287 635 230 637ZM630 554Q630 586 609 608T523 636Q521 636 500 636T462 637H440Q393 637 386 627Q385 624 352 494T319 361Q319 360 388 360Q466 361 492 367Q556 377 592 426Q608 449 619 486T630 554Z"/>
            </defs>
            <g stroke="currentColor" fill="currentColor" stroke-width="0" transform="scale(1,-1)">
              <g data-mml-node="math">
                <g data-mml-node="mi" data-semantic-type="identifier" data-semantic-role="latinletter" data-semantic-font="italic" data-semantic-annotation="clearspeak:simple" data-semantic-id="0" data-semantic-speech="upper R">
                  <use data-c="1D445" xlink:href="#relation-composition-digraph-1-MJX-2-TEX-I-1D445"/>
                </g>
              </g>
            </g>
          </svg>
        </g>
      </g>
      <line id="relation-composition-digraph-1-edge-2-3" x1="155.0" y1="155.0" x2="257.6" y2="155.0" stroke="black" stroke-width="2" stroke-dasharray="none" fill="none" marker-end="url(#relation-composition-digraph-1-arrow-head-end-2_None_24_60-black)"/>
      <g id="relation-composition-digraph-1-label-1" transform="translate(215.0,159.0) translate(-5.8,-0.0)">
        <g id="relation-composition-digraph-1-g-1">
          <svg xmlns:xlink="http://www.w3.org/1999/xlink" style="vertical-align: -0.400px" width="11.672px" height="13.160px" role="img" focusable="false" viewBox="0 -705 645 727" x="0.0" y="0.0">
            <defs>
              <path id="relation-composition-digraph-1-MJX-3-TEX-I-1D446" d="M308 24Q367 24 416 76T466 197Q466 260 414 284Q308 311 278 321T236 341Q176 383 176 462Q176 523 208 573T273 648Q302 673 343 688T407 704H418H425Q521 704 564 640Q565 640 577 653T603 682T623 704Q624 704 627 704T632 705Q645 705 645 698T617 577T585 459T569 456Q549 456 549 465Q549 471 550 475Q550 478 551 494T553 520Q553 554 544 579T526 616T501 641Q465 662 419 662Q362 662 313 616T263 510Q263 480 278 458T319 427Q323 425 389 408T456 390Q490 379 522 342T554 242Q554 216 546 186Q541 164 528 137T492 78T426 18T332 -20Q320 -22 298 -22Q199 -22 144 33L134 44L106 13Q83 -14 78 -18T65 -22Q52 -22 52 -14Q52 -11 110 221Q112 227 130 227H143Q149 221 149 216Q149 214 148 207T144 186T142 153Q144 114 160 87T203 47T255 29T308 24Z"/>
            </defs>
            <g stroke="currentColor" fill="currentColor" stroke-width="0" transform="scale(1,-1)">
              <g data-mml-node="math">
                <g data-mml-node="mi" data-semantic-type="identifier" data-semantic-role="latinletter" data-semantic-font="italic" data-semantic-annotation="clearspeak:simple" data-semantic-id="0" data-semantic-speech="upper S">
                  <use data-c="1D446" xlink:href="#relation-composition-digraph-1-MJX-3-TEX-I-1D446"/>
                </g>
              </g>
            </g>
          </svg>
        </g>
      </g>
    </g>
    <g id="relation-composition-digraph-1-group-2">
      <circle id="relation-composition-digraph-1-node-1" cx="35.0" cy="155.0" r="12" stroke="no" stroke-width="1" fill="white"/>
      <g id="relation-composition-digraph-1-1" transform="translate(35.0,155.0) translate(-4.8,-4.1)">
        <g id="relation-composition-digraph-1-g-2">
          <svg xmlns:xlink="http://www.w3.org/1999/xlink" style="vertical-align: -0.184px" width="9.576px" height="8.160px" role="img" focusable="false" viewBox="0 -441 529 451" x="0.0" y="0.0">
            <defs>
              <path id="relation-composition-digraph-1-MJX-4-TEX-I-1D44E" d="M33 157Q33 258 109 349T280 441Q331 441 370 392Q386 422 416 422Q429 422 439 414T449 394Q449 381 412 234T374 68Q374 43 381 35T402 26Q411 27 422 35Q443 55 463 131Q469 151 473 152Q475 153 483 153H487Q506 153 506 144Q506 138 501 117T481 63T449 13Q436 0 417 -8Q409 -10 393 -10Q359 -10 336 5T306 36L300 51Q299 52 296 50Q294 48 292 46Q233 -10 172 -10Q117 -10 75 30T33 157ZM351 328Q351 334 346 350T323 385T277 405Q242 405 210 374T160 293Q131 214 119 129Q119 126 119 118T118 106Q118 61 136 44T179 26Q217 26 254 59T298 110Q300 114 325 217T351 328Z"/>
            </defs>
            <g stroke="currentColor" fill="currentColor" stroke-width="0" transform="scale(1,-1)">
              <g data-mml-node="math">
                <g data-mml-node="mi" data-semantic-type="identifier" data-semantic-role="latinletter" data-semantic-font="italic" data-semantic-annotation="clearspeak:simple" data-semantic-id="0" data-semantic-speech="a">
                  <use data-c="1D44E" xlink:href="#relation-composition-digraph-1-MJX-4-TEX-I-1D44E"/>
                </g>
              </g>
            </g>
          </svg>
        </g>
      </g>
      <circle id="relation-composition-digraph-1-node-2" cx="155.0" cy="155.0" r="12" stroke="no" stroke-width="1" fill="white"/>
      <g id="relation-composition-digraph-1-2" transform="translate(155.0,155.0) translate(-3.9,-6.4)">
        <g id="relation-composition-digraph-1-g-3">
          <svg xmlns:xlink="http://www.w3.org/1999/xlink" style="vertical-align: -0.200px" width="7.768px" height="12.760px" role="img" focusable="false" viewBox="0 -694 429 705" x="0.0" y="0.0">
            <defs>
              <path id="relation-composition-digraph-1-MJX-5-TEX-I-1D44F" d="M73 647Q73 657 77 670T89 683Q90 683 161 688T234 694Q246 694 246 685T212 542Q204 508 195 472T180 418L176 399Q176 396 182 402Q231 442 283 442Q345 442 383 396T422 280Q422 169 343 79T173 -11Q123 -11 82 27T40 150V159Q40 180 48 217T97 414Q147 611 147 623T109 637Q104 637 101 637H96Q86 637 83 637T76 640T73 647ZM336 325V331Q336 405 275 405Q258 405 240 397T207 376T181 352T163 330L157 322L136 236Q114 150 114 114Q114 66 138 42Q154 26 178 26Q211 26 245 58Q270 81 285 114T318 219Q336 291 336 325Z"/>
            </defs>
            <g stroke="currentColor" fill="currentColor" stroke-width="0" transform="scale(1,-1)">
              <g data-mml-node="math">
                <g data-mml-node="mi" data-semantic-type="identifier" data-semantic-role="latinletter" data-semantic-font="italic" data-semantic-annotation="clearspeak:simple" data-semantic-id="0" data-semantic-speech="b">
                  <use data-c="1D44F" xlink:href="#relation-composition-digraph-1-MJX-5-TEX-I-1D44F"/>
                </g>
              </g>
            </g>
          </svg>
        </g>
      </g>
      <circle id="relation-composition-digraph-1-node-3" cx="275.0" cy="155.0" r="12" stroke="no" stroke-width="1" fill="white"/>
      <g id="relation-composition-digraph-1-3" transform="translate(275.0,155.0) translate(-3.9,-4.1)">
        <g id="relation-composition-digraph-1-g-4">
          <svg xmlns:xlink="http://www.w3.org/1999/xlink" style="vertical-align: -0.200px" width="7.840px" height="8.200px" role="img" focusable="false" viewBox="0 -442 433 453" x="0.0" y="0.0">
            <defs>
              <path id="relation-composition-digraph-1-MJX-6-TEX-I-1D450" d="M34 159Q34 268 120 355T306 442Q362 442 394 418T427 355Q427 326 408 306T360 285Q341 285 330 295T319 325T330 359T352 380T366 386H367Q367 388 361 392T340 400T306 404Q276 404 249 390Q228 381 206 359Q162 315 142 235T121 119Q121 73 147 50Q169 26 205 26H209Q321 26 394 111Q403 121 406 121Q410 121 419 112T429 98T420 83T391 55T346 25T282 0T202 -11Q127 -11 81 37T34 159Z"/>
            </defs>
            <g stroke="currentColor" fill="currentColor" stroke-width="0" transform="scale(1,-1)">
              <g data-mml-node="math">
                <g data-mml-node="mi" data-semantic-type="identifier" data-semantic-role="latinletter" data-semantic-font="italic" data-semantic-annotation="clearspeak:simple" data-semantic-id="0" data-semantic-speech="c">
                  <use data-c="1D450" xlink:href="#relation-composition-digraph-1-MJX-6-TEX-I-1D450"/>
                </g>
              </g>
            </g>
          </svg>
        </g>
      </g>
    </g>
  </g>
</svg>
